<svg width="402" height="147" viewBox="0 0 134 49" fill="none" xmlns="http://www.w3.org/2000/svg">
<path d="M53.4912 9.52603C53.4912 10.2784 53.6315 10.6483 54.2181 11.1329L55.1236 11.8853C55.6974 12.3571 55.9908 12.3699 56.7049 12.3699H58.6433C59.0514 12.3699 59.485 12.2806 59.485 11.7578C59.485 11.2221 59.0004 11.1456 58.6433 11.1456H56.4881C56.2458 11.1456 56.0035 11.0181 55.7867 10.8396L55.047 10.2147C54.8558 10.0616 54.7155 9.93412 54.7155 9.69181V8.17424C54.7155 7.93193 54.8558 7.80441 55.047 7.65137L55.7867 7.02649C56.0035 6.84795 56.2458 6.72042 56.4881 6.72042H58.6433C59.0004 6.72042 59.485 6.6439 59.485 6.10829C59.485 5.58542 59.0514 5.49615 58.6433 5.49615H56.7049C55.9908 5.49615 55.6974 5.50891 55.1236 5.98076L54.2181 6.73317C53.6315 7.21778 53.4912 7.58761 53.4912 8.34002V9.52603Z" fill="black"/>
<path d="M66.6486 6.72042C67.3372 6.72042 67.299 7.17952 67.3245 7.76615L67.452 11.541C67.4648 11.9491 67.5668 12.3699 68.0641 12.3699C68.6125 12.3699 68.6763 11.8853 68.6635 11.4517L68.536 7.60036C68.5105 6.93722 68.536 6.41435 67.9876 5.9425C67.4775 5.49615 67.0439 5.49615 66.8016 5.49615H65.9854C65.5773 5.49615 65.2075 5.7002 64.8887 5.90424L63.894 6.55463V3.81279C63.894 3.39195 63.8047 2.97111 63.2818 2.97111C62.759 2.97111 62.6697 3.39195 62.6697 3.81279V11.5282C62.6697 11.9491 62.759 12.3699 63.2818 12.3699C63.8047 12.3699 63.894 11.9491 63.894 11.5282V7.97019L65.7049 6.8352C65.8324 6.75868 65.9599 6.72042 66.0875 6.72042H66.6486Z" fill="black"/>
<path d="M75.419 6.72042C76.2989 6.72042 76.503 6.87345 76.503 7.79165V8.07221H73.8759C73.3403 8.07221 72.8684 8.16148 72.4476 8.53131C71.9885 8.9394 71.8482 9.30923 71.8482 9.89586V10.4315C71.8482 11.0691 71.9757 11.5155 72.4859 11.9363C72.9322 12.3061 73.3275 12.3699 73.8759 12.3699H75.0492C75.4445 12.3699 75.4573 12.3699 75.8016 12.1914L76.6433 11.7578C76.6305 12.1021 76.9493 12.3699 77.2681 12.3699C77.6762 12.3699 77.8548 12.0128 77.842 11.6557L77.7145 7.49834C77.7017 6.88621 77.638 6.51638 77.1661 6.04452C76.6815 5.55992 76.2224 5.49615 75.5848 5.49615H73.9014C73.4933 5.49615 73.0597 5.58542 73.0597 6.10829C73.0597 6.6439 73.5443 6.72042 73.9014 6.72042H75.419ZM75.6996 9.29648C76.3755 9.29648 76.5667 9.50052 76.5667 10.1764V10.4442L75.2149 11.1456H73.8632C73.5698 11.1456 73.0725 11.0564 73.0725 10.6483V9.8321C73.0725 9.38575 73.5571 9.29648 73.8887 9.29648H75.6996Z" fill="black"/>
<path d="M84.6613 6.35059C84.6613 5.62368 84.4572 5.49615 83.7558 5.49615H82.4678C82.0597 5.49615 81.6261 5.58542 81.6261 6.10829C81.6261 6.6439 82.1107 6.72042 82.4678 6.72042H83.437V11.1456H82.4678C82.0597 11.1456 81.6261 11.2349 81.6261 11.7578C81.6261 12.2934 82.1107 12.3699 82.4678 12.3699H85.5795C85.9365 12.3699 86.4211 12.2934 86.4211 11.7578C86.4211 11.2349 85.9875 11.1456 85.5795 11.1456H84.6613V6.35059ZM82.8121 3.60874C82.8121 4.04234 83.0544 4.18262 83.386 4.18262H84.0874C84.419 4.18262 84.6613 4.04234 84.6613 3.60874V3.02212C84.6613 2.58852 84.419 2.44824 84.0874 2.44824H83.386C83.0544 2.44824 82.8121 2.58852 82.8121 3.02212V3.60874Z" fill="black"/>
<path d="M93.2404 6.8352C93.3679 6.75868 93.4954 6.72042 93.623 6.72042H94.0311C94.7707 6.72042 94.8345 7.01373 94.86 7.76615L94.9875 11.541C95.0003 11.9491 95.1023 12.3699 95.5996 12.3699C96.148 12.3699 96.2118 11.8853 96.199 11.4517L96.0715 7.60036C96.046 6.93722 96.0715 6.41435 95.5231 5.9425C95.1533 5.62368 94.86 5.49615 94.3881 5.49615H93.4827C93.0874 5.49615 92.743 5.7002 92.4242 5.90424L91.4295 6.55463V6.52913V6.38885C91.4295 5.95525 91.3657 5.49615 90.8174 5.49615C90.2562 5.49615 90.2052 5.95525 90.2052 6.4016V11.5282C90.2052 11.9491 90.2945 12.3699 90.8174 12.3699C91.3402 12.3699 91.4295 11.9491 91.4295 11.5282V7.97019L93.2404 6.8352Z" fill="black"/>
<path d="M103.018 3.82554C103.018 3.09863 102.814 2.97111 102.113 2.97111H100.825C100.417 2.97111 99.9831 3.06038 99.9831 3.58324C99.9831 4.11886 100.468 4.19537 100.825 4.19537H101.794V11.1456H100.825C100.417 11.1456 99.9831 11.2349 99.9831 11.7578C99.9831 12.2934 100.468 12.3699 100.825 12.3699H103.936C104.294 12.3699 104.778 12.2934 104.778 11.7578C104.778 11.2349 104.345 11.1456 103.936 11.1456H103.018V3.82554Z" fill="black"/>
<path d="M112.197 6.35059C112.197 5.62368 111.993 5.49615 111.291 5.49615H110.003C109.595 5.49615 109.162 5.58542 109.162 6.10829C109.162 6.6439 109.646 6.72042 110.003 6.72042H110.973V11.1456H110.003C109.595 11.1456 109.162 11.2349 109.162 11.7578C109.162 12.2934 109.646 12.3699 110.003 12.3699H113.115C113.472 12.3699 113.957 12.2934 113.957 11.7578C113.957 11.2349 113.523 11.1456 113.115 11.1456H112.197V6.35059ZM110.348 3.60874C110.348 4.04234 110.59 4.18262 110.921 4.18262H111.623C111.954 4.18262 112.197 4.04234 112.197 3.60874V3.02212C112.197 2.58852 111.954 2.44824 111.623 2.44824H110.921C110.59 2.44824 110.348 2.58852 110.348 3.02212V3.60874Z" fill="black"/>
<path d="M120.776 6.8352C120.903 6.75868 121.031 6.72042 121.158 6.72042H121.567C122.306 6.72042 122.37 7.01373 122.396 7.76615L122.523 11.541C122.536 11.9491 122.638 12.3699 123.135 12.3699C123.684 12.3699 123.747 11.8853 123.735 11.4517L123.607 7.60036C123.582 6.93722 123.607 6.41435 123.059 5.9425C122.689 5.62368 122.396 5.49615 121.924 5.49615H121.018C120.623 5.49615 120.279 5.7002 119.96 5.90424L118.965 6.55463V6.52913V6.38885C118.965 5.95525 118.901 5.49615 118.353 5.49615C117.792 5.49615 117.741 5.95525 117.741 6.4016V11.5282C117.741 11.9491 117.83 12.3699 118.353 12.3699C118.876 12.3699 118.965 11.9491 118.965 11.5282V7.97019L120.776 6.8352Z" fill="black"/>
<path d="M128.144 8.35277V3.81279C128.144 3.39195 128.054 2.97111 127.531 2.97111C127.009 2.97111 126.919 3.39195 126.919 3.81279V11.5282C126.919 11.9491 127.009 12.3699 127.531 12.3699C128.054 12.3699 128.144 11.9491 128.144 11.5282V9.97238L128.654 9.51328L131.727 12.0766C131.906 12.2169 132.059 12.3699 132.301 12.3699C132.645 12.3699 132.913 12.0893 132.913 11.745C132.913 11.4262 132.709 11.2859 132.479 11.0946L129.597 8.6971L131.969 6.73317C132.186 6.55463 132.377 6.41435 132.377 6.12104C132.377 5.77672 132.11 5.49615 131.765 5.49615C131.472 5.49615 131.166 5.80222 130.949 5.99351L128.144 8.35277Z" fill="black"/>
<path d="M57.4446 23.7241C57.7761 23.7241 57.9929 23.7496 58.197 23.9664C58.35 24.1322 58.4903 24.2215 58.7198 24.2215C59.0514 24.2215 59.3447 23.9537 59.3447 23.6093C59.3447 23.265 59.0897 23.112 58.8601 22.9207C58.401 22.5381 58.1205 22.4998 57.4446 22.4998H55.3531C54.4349 22.4998 53.6697 23.0865 53.6697 24.0557C53.6697 24.8464 54.0651 25.2417 54.741 25.5478L57.6231 26.8613C57.9037 26.9888 58.2607 27.1801 58.2607 27.4734C58.2607 28.1876 57.6741 28.1493 57.2405 28.1493H55.5827C55.2001 28.1493 54.8175 28.1238 54.6007 27.8815C54.4604 27.7285 54.3201 27.6647 54.1288 27.6647C53.7845 27.6647 53.4912 27.9325 53.4912 28.2768C53.4912 28.5829 53.8228 28.8125 54.0523 28.991C54.5114 29.3481 54.945 29.3736 55.5827 29.3736H57.4701C58.6433 29.3736 59.485 28.787 59.485 27.5499C59.485 26.67 59.0769 26.1726 58.2863 25.8156L55.2256 24.4255C55.047 24.349 54.894 24.2725 54.894 24.0684C54.894 23.6731 55.3276 23.7241 55.5827 23.7241H57.4446Z" fill="black"/>
<path d="M68.6635 25.4075C68.6635 24.5403 68.5998 24.196 67.8856 23.6348L67.1459 23.061C66.8144 22.8059 66.419 22.4998 66.1257 22.4998H65.284C64.9397 22.4998 64.4551 22.9589 64.1363 23.2395L63.894 23.4563V23.3033C63.894 22.8952 63.7792 22.4998 63.2818 22.4998C62.7207 22.4998 62.6697 22.9717 62.6697 23.4053V31.1335C62.6697 31.5543 62.759 31.9752 63.2818 31.9752C63.8047 31.9752 63.894 31.5543 63.894 31.1335V28.6722L64.1363 28.9017C64.5316 29.2716 64.7867 29.6286 65.335 29.6286H66.164C66.4955 29.6286 66.8909 29.2843 67.1459 29.0803L67.8856 28.4936C68.5998 27.9325 68.6635 27.601 68.6635 26.721V25.4075ZM67.4392 26.8868C67.4392 27.1163 67.3755 27.2566 67.1842 27.4224L66.266 28.1876C66.1512 28.2896 66.0109 28.4044 65.8452 28.4044H65.5263C65.3733 28.4044 65.182 28.2386 65.0035 28.0601L64.0725 27.1801C63.945 27.0653 63.894 26.8358 63.894 26.6572V25.4585C63.894 25.1907 63.9833 25.0504 64.2383 24.8081L65.0035 24.0812C65.131 23.9537 65.3478 23.7241 65.5263 23.7241H65.8452C66.0109 23.7241 66.1512 23.8389 66.266 23.9409L67.1842 24.7061C67.3755 24.8719 67.4392 25.0121 67.4392 25.2417V26.8868Z" fill="black"/>
<path d="M71.8482 28.5319C71.8482 28.9527 71.9375 29.3736 72.4604 29.3736C72.9832 29.3736 73.0725 28.9527 73.0725 28.5319V25.433L74.7814 24.0174C74.9982 23.8389 75.1639 23.7241 75.3935 23.7241H75.7506C76.0439 23.7241 76.3372 23.7241 76.4902 23.9409C76.6178 24.1194 76.6178 24.2725 76.6178 24.4765C76.6178 24.8719 76.7963 25.2289 77.2426 25.2289C77.7655 25.2289 77.842 24.7953 77.842 24.3745C77.842 23.8134 77.7017 23.3925 77.2936 22.9844C76.9621 22.6529 76.5667 22.4998 76.0949 22.4998H75.1129C74.7303 22.4998 74.3733 22.7421 74.0289 23.0227L73.0725 23.8134V23.316C73.0725 22.9079 72.945 22.4998 72.4604 22.4998C71.8992 22.4998 71.8482 22.9589 71.8482 23.4053V28.5319Z" fill="black"/>
<path d="M84.6613 23.3543C84.6613 22.6274 84.4572 22.4998 83.7558 22.4998H82.4678C82.0597 22.4998 81.6261 22.5891 81.6261 23.112C81.6261 23.6476 82.1107 23.7241 82.4678 23.7241H83.437V28.1493H82.4678C82.0597 28.1493 81.6261 28.2386 81.6261 28.7615C81.6261 29.2971 82.1107 29.3736 82.4678 29.3736H85.5795C85.9365 29.3736 86.4211 29.2971 86.4211 28.7615C86.4211 28.2386 85.9875 28.1493 85.5795 28.1493H84.6613V23.3543ZM82.8121 20.6124C82.8121 21.046 83.0544 21.1863 83.386 21.1863H84.0874C84.419 21.1863 84.6613 21.046 84.6613 20.6124V20.0258C84.6613 19.5922 84.419 19.4519 84.0874 19.4519H83.386C83.0544 19.4519 82.8121 19.5922 82.8121 20.0258V20.6124Z" fill="black"/>
<path d="M93.2404 23.8389C93.3679 23.7624 93.4954 23.7241 93.623 23.7241H94.0311C94.7707 23.7241 94.8345 24.0174 94.86 24.7698L94.9875 28.5447C95.0003 28.9527 95.1023 29.3736 95.5996 29.3736C96.148 29.3736 96.2118 28.889 96.199 28.4554L96.0715 24.6041C96.046 23.9409 96.0715 23.418 95.5231 22.9462C95.1533 22.6274 94.86 22.4998 94.3881 22.4998H93.4827C93.0874 22.4998 92.743 22.7039 92.4242 22.9079L91.4295 23.5583V23.5328V23.3925C91.4295 22.9589 91.3657 22.4998 90.8174 22.4998C90.2562 22.4998 90.2052 22.9589 90.2052 23.4053V28.5319C90.2052 28.9527 90.2945 29.3736 90.8174 29.3736C91.3402 29.3736 91.4295 28.9527 91.4295 28.5319V24.9739L93.2404 23.8389Z" fill="black"/>
<path d="M99.3837 26.6445C99.3837 27.1419 99.4092 27.4607 99.7663 27.7922L100.531 28.4809C100.901 28.8125 101.195 28.8507 101.45 28.8507H102.891C103.235 28.8507 103.618 28.5319 103.898 28.2513L104.153 27.9963V29.6797C104.153 29.9092 104.077 30.0877 103.975 30.1898L103.669 30.4703C103.477 30.6361 103.312 30.7509 103.057 30.7509H100.812C100.404 30.7509 99.9704 30.8402 99.9704 31.363C99.9704 31.8986 100.455 31.9752 100.812 31.9752H102.84C103.528 31.9752 103.834 31.8986 104.37 31.4523L104.778 31.108C105.288 30.6744 105.378 30.4448 105.378 29.3353V23.3543C105.378 22.9462 105.314 22.4998 104.778 22.4998C104.357 22.4998 104.153 22.8314 104.153 23.214V23.3543L103.847 23.112C103.375 22.7421 102.98 22.4998 102.648 22.4998H101.462C101.144 22.4998 100.952 22.5891 100.697 22.7932L99.8046 23.4946C99.5495 23.6986 99.3837 24.2087 99.3837 24.7826V26.6445ZM100.608 24.8846C100.608 24.6296 100.621 24.3617 100.761 24.247L101.271 23.8389C101.36 23.7624 101.475 23.7241 101.628 23.7241H102.521C102.674 23.7241 102.852 23.8516 103.082 24.0429L104.026 24.8209C104.115 24.8974 104.153 25.0632 104.153 25.2289V26.1216C104.153 26.2874 104.115 26.4532 104.026 26.5297L103.082 27.3076C102.852 27.4989 102.674 27.6265 102.521 27.6265H101.628C101.475 27.6265 101.36 27.5882 101.271 27.5117L100.761 27.1036C100.621 26.9888 100.608 26.721 100.608 26.466V24.8846Z" fill="black"/>
<path d="M118.863 25.0504H122.459C122.88 25.0504 123.173 24.9866 123.492 24.6933C123.849 24.3617 123.888 24.0174 123.888 23.5583V20.944C123.888 20.4849 123.849 20.1406 123.492 19.809C123.173 19.5157 122.88 19.4519 122.459 19.4519H118.225C117.894 19.4519 117.588 19.6305 117.588 20.0896C117.588 20.5487 117.894 20.7272 118.225 20.7272H122.612V23.7751H119.029C118.072 23.7751 117.588 24.2597 117.588 25.2162V29.3736H123.25C123.582 29.3736 123.888 29.195 123.888 28.7359C123.888 28.2768 123.582 28.0983 123.25 28.0983H118.863V25.0504Z" fill="black"/>
<path d="M128.041 25.0504H131.638C132.059 25.0504 132.352 24.9866 132.671 24.6933C133.028 24.3617 133.066 24.0174 133.066 23.5583V20.944C133.066 20.4849 133.028 20.1406 132.671 19.809C132.352 19.5157 132.059 19.4519 131.638 19.4519H127.404C127.072 19.4519 126.766 19.6305 126.766 20.0896C126.766 20.5487 127.072 20.7272 127.404 20.7272H131.791V23.7751H128.207C127.251 23.7751 126.766 24.2597 126.766 25.2162V29.3736H132.428C132.76 29.3736 133.066 29.195 133.066 28.7359C133.066 28.2768 132.76 28.0983 132.428 28.0983H128.041V25.0504Z" fill="black"/>
<path d="M57.4701 40.7278C58.1587 40.7278 58.1205 41.1869 58.146 41.7735L58.2735 45.5483C58.2863 45.9564 58.3883 46.3773 58.8856 46.3773C59.434 46.3773 59.4978 45.8927 59.485 45.4591L59.3575 41.6077C59.332 40.9446 59.3575 40.4217 58.8091 39.9499C58.299 39.5035 57.8654 39.5035 57.6231 39.5035H56.8069C56.3988 39.5035 56.029 39.7076 55.7102 39.9116L54.7155 40.562V37.8202C54.7155 37.3993 54.6262 36.9785 54.1033 36.9785C53.5805 36.9785 53.4912 37.3993 53.4912 37.8202V45.5356C53.4912 45.9564 53.5805 46.3773 54.1033 46.3773C54.6262 46.3773 54.7155 45.9564 54.7155 45.5356V41.9776L56.5264 40.8426C56.6539 40.7661 56.7814 40.7278 56.909 40.7278H57.4701Z" fill="black"/>
<path d="M66.2405 40.7278C67.1204 40.7278 67.3245 40.8808 67.3245 41.799V42.0796H64.6974C64.1618 42.0796 63.6899 42.1689 63.2691 42.5387C62.81 42.9468 62.6697 43.3166 62.6697 43.9032V44.4389C62.6697 45.0765 62.7972 45.5228 63.3074 45.9437C63.7537 46.3135 64.149 46.3773 64.6974 46.3773H65.8707C66.266 46.3773 66.2787 46.3773 66.6231 46.1987L67.4648 45.7651C67.452 46.1095 67.7708 46.3773 68.0896 46.3773C68.4977 46.3773 68.6763 46.0202 68.6635 45.6631L68.536 41.5057C68.5232 40.8936 68.4595 40.5238 67.9876 40.0519C67.503 39.5673 67.0439 39.5035 66.4063 39.5035H64.7229C64.3148 39.5035 63.8812 39.5928 63.8812 40.1157C63.8812 40.6513 64.3658 40.7278 64.7229 40.7278H66.2405ZM66.5211 43.3039C67.1969 43.3039 67.3882 43.5079 67.3882 44.1838V44.4516L66.0364 45.153H64.6847C64.3913 45.153 63.894 45.0637 63.894 44.6557V43.8395C63.894 43.3931 64.3786 43.3039 64.7102 43.3039H66.5211Z" fill="black"/>
<path d="M71.8482 43.5334C71.8482 44.2858 71.9885 44.6557 72.5751 45.1403L73.4806 45.8927C74.0544 46.3645 74.3478 46.3773 75.0619 46.3773H77.0003C77.4084 46.3773 77.842 46.288 77.842 45.7651C77.842 45.2295 77.3574 45.153 77.0003 45.153H74.8451C74.6028 45.153 74.3605 45.0255 74.1437 44.8469L73.4041 44.2221C73.2128 44.069 73.0725 43.9415 73.0725 43.6992V42.1816C73.0725 41.9393 73.2128 41.8118 73.4041 41.6588L74.1437 41.0339C74.3605 40.8553 74.6028 40.7278 74.8451 40.7278H77.0003C77.3574 40.7278 77.842 40.6513 77.842 40.1157C77.842 39.5928 77.4084 39.5035 77.0003 39.5035H75.0619C74.3478 39.5035 74.0544 39.5163 73.4806 39.9881L72.5751 40.7406C71.9885 41.2252 71.8482 41.595 71.8482 42.3474V43.5334Z" fill="black"/>
<path d="M82.251 42.3602V37.8202C82.251 37.3993 82.1617 36.9785 81.6389 36.9785C81.116 36.9785 81.0267 37.3993 81.0267 37.8202V45.5356C81.0267 45.9564 81.116 46.3773 81.6389 46.3773C82.1617 46.3773 82.251 45.9564 82.251 45.5356V43.9798L82.7611 43.5207L85.8345 46.084C86.0131 46.2242 86.1661 46.3773 86.4084 46.3773C86.7527 46.3773 87.0205 46.0967 87.0205 45.7524C87.0205 45.4336 86.8165 45.2933 86.5869 45.102L83.7048 42.7045L86.0768 40.7406C86.2936 40.562 86.4849 40.4217 86.4849 40.1284C86.4849 39.7841 86.2171 39.5035 85.8728 39.5035C85.5795 39.5035 85.2734 39.8096 85.0566 40.0009L82.251 42.3602Z" fill="black"/>
<path d="M93.776 40.7278C94.6559 40.7278 94.86 40.8808 94.86 41.799V42.0796H92.2329C91.6973 42.0796 91.2254 42.1689 90.8046 42.5387C90.3455 42.9468 90.2052 43.3166 90.2052 43.9032V44.4389C90.2052 45.0765 90.3328 45.5228 90.8429 45.9437C91.2892 46.3135 91.6845 46.3773 92.2329 46.3773H93.4062C93.8015 46.3773 93.8143 46.3773 94.1586 46.1987L95.0003 45.7651C94.9875 46.1095 95.3063 46.3773 95.6252 46.3773C96.0332 46.3773 96.2118 46.0202 96.199 45.6631L96.0715 41.5057C96.0587 40.8936 95.995 40.5238 95.5231 40.0519C95.0385 39.5673 94.5794 39.5035 93.9418 39.5035H92.2584C91.8503 39.5035 91.4167 39.5928 91.4167 40.1157C91.4167 40.6513 91.9013 40.7278 92.2584 40.7278H93.776ZM94.0566 43.3039C94.7325 43.3039 94.9238 43.5079 94.9238 44.1838V44.4516L93.572 45.153H92.2202C91.9269 45.153 91.4295 45.0637 91.4295 44.6557V43.8395C91.4295 43.3931 91.9141 43.3039 92.2457 43.3039H94.0566Z" fill="black"/>
<path d="M101.845 40.7278H103.898C104.255 40.7278 104.74 40.6513 104.74 40.1157C104.74 39.5928 104.306 39.5035 103.898 39.5035H101.845V38.2538C101.845 37.8329 101.756 37.4121 101.233 37.4121C100.71 37.4121 100.621 37.8329 100.621 38.2538V39.5035H100.225C99.8173 39.5035 99.3837 39.5928 99.3837 40.1157C99.3837 40.6513 99.8683 40.7278 100.225 40.7278H100.621V44.0563C100.621 44.7194 100.595 45.2423 101.067 45.7651C101.501 46.237 102.036 46.3773 102.648 46.3773H103.273C103.924 46.3773 104.51 46.288 104.957 45.7524C105.161 45.5101 105.378 45.0765 105.378 44.7322C105.378 44.3878 105.097 44.12 104.753 44.12C104.447 44.12 104.217 44.3241 104.141 44.6174C104.013 45.1148 103.783 45.153 103.286 45.153H102.661C101.82 45.153 101.845 44.7577 101.845 44.069V40.7278Z" fill="black"/>
<path d="M112.541 40.7278C113.23 40.7278 113.191 41.1869 113.217 41.7735L113.345 45.5483C113.357 45.9564 113.459 46.3773 113.957 46.3773C114.505 46.3773 114.569 45.8927 114.556 45.4591L114.429 41.6077C114.403 40.9446 114.429 40.4217 113.88 39.9499C113.37 39.5035 112.936 39.5035 112.694 39.5035H111.878C111.47 39.5035 111.1 39.7076 110.781 39.9116L109.786 40.562V37.8202C109.786 37.3993 109.697 36.9785 109.174 36.9785C108.652 36.9785 108.562 37.3993 108.562 37.8202V45.5356C108.562 45.9564 108.652 46.3773 109.174 46.3773C109.697 46.3773 109.786 45.9564 109.786 45.5356V41.9776L111.597 40.8426C111.725 40.7661 111.852 40.7278 111.98 40.7278H112.541Z" fill="black"/>
<path d="M117.741 44.0945C117.741 44.898 117.945 45.204 118.582 45.7396C119.22 46.2753 119.475 46.3773 120.253 46.3773H121.222C122 46.3773 122.255 46.2753 122.893 45.7396C123.53 45.204 123.735 44.898 123.735 44.0945V41.7863C123.735 40.9701 123.569 40.6895 122.957 40.1922C122.357 39.6948 122.077 39.5035 121.222 39.5035H120.253C119.399 39.5035 119.118 39.6948 118.519 40.1922C117.907 40.6895 117.741 40.9701 117.741 41.7863V44.0945ZM118.965 41.7863C118.965 41.5312 119.054 41.3654 119.411 41.0594C119.679 40.8298 119.87 40.7278 120.253 40.7278H121.222C121.605 40.7278 121.796 40.8298 122.064 41.0594C122.421 41.3654 122.51 41.5312 122.51 41.7863V44.0945C122.51 44.3496 122.421 44.5154 122.064 44.8214C121.796 45.051 121.605 45.153 121.222 45.153H120.253C119.87 45.153 119.679 45.051 119.411 44.8214C119.054 44.5154 118.965 44.3496 118.965 44.0945V41.7863Z" fill="black"/>
<path d="M129.954 40.8426C130.082 40.7661 130.209 40.7278 130.337 40.7278H130.745C131.485 40.7278 131.549 41.0211 131.574 41.7735L131.702 45.5483C131.714 45.9564 131.816 46.3773 132.314 46.3773C132.862 46.3773 132.926 45.8927 132.913 45.4591L132.786 41.6077C132.76 40.9446 132.786 40.4217 132.237 39.9499C131.867 39.6311 131.574 39.5035 131.102 39.5035H130.197C129.801 39.5035 129.457 39.7076 129.138 39.9116L128.144 40.562V40.5365V40.3962C128.144 39.9626 128.08 39.5035 127.531 39.5035C126.97 39.5035 126.919 39.9626 126.919 40.409V45.5356C126.919 45.9564 127.009 46.3773 127.531 46.3773C128.054 46.3773 128.144 45.9564 128.144 45.5356V41.9776L129.954 40.8426Z" fill="black"/>
<path d="M20.9059 10.6701L32.9691 17.5603V31.3957L20.9391 38.3299L8.87588 31.4507V17.6153L20.9059 10.6701ZM20.9059 0.5L16.479 3.05354L4.42687 9.99874L0 12.5523V17.6374V31.4617V36.5468L4.42687 39.0783L16.4901 45.9685L20.917 48.5L25.3438 45.9465L37.3739 39.0013L41.8007 36.4587V31.3736V17.5383V12.4532L37.3739 9.92169L25.3106 3.03153L20.8838 0.5H20.9059Z" fill="#375BD2"/>
</svg>
